<?xml version="1.0" encoding="utf-8"?>
<!-- Generator: Adobe Illustrator 28.3.0, SVG Export Plug-In . SVG Version: 6.00 Build 0)  -->
<svg version="1.1" id="Layer_1" xmlns="http://www.w3.org/2000/svg" xmlns:xlink="http://www.w3.org/1999/xlink" x="0px" y="0px"
	 viewBox="0 0 1007 568" style="enable-background:new 0 0 1007 568;" xml:space="preserve">
<style type="text/css">
	.st0{fill:#FFFFFF;}
	.st1{fill:#ED0026;}
</style>
<g>
	<rect x="231.4" y="409.51" class="st0" width="192.73" height="56.87"/>
	<rect x="559.99" y="409.51" class="st0" width="379.15" height="56.87"/>
	<g>
		<g>
			<path class="st0" d="M63.54,345.89h73.52c2.62,0,4.49-0.15,5.6-0.45c1.11-0.3,1.86-1.16,2.27-2.57l3.94-12.1l0.3-1.21
				c0-1.01-0.36-1.86-1.06-2.57c-0.71-0.71-1.87-1.06-3.48-1.06H69.89l27.84-101.36h47.2l-15.13,55.37h34.8
				c5.45,0,10.59,1.16,15.43,3.48c4.84,2.32,8.87,5.6,12.1,9.83c4.64,6.25,6.96,13.42,6.96,21.48c0,3.43-0.41,6.45-1.21,9.08
				l-10.89,36.61c-2.63,9.08-7.77,16.64-15.43,22.69c-7.67,6.05-16.24,9.08-25.72,9.08h-82.3V345.89z"/>
			<path class="st0" d="M302.84,195.44c-6.16-6.35-9.23-13.87-9.23-22.54c0-3.22,0.4-6.15,1.21-8.77l9.38-34.5
				c2.22-8.27,6.86-15.08,13.92-20.42c7.06-5.34,14.83-8.02,23.3-8.02h51.44c9.28,0,16.89,3.08,22.85,9.23
				c5.95,6.15,8.93,13.57,8.93,22.24c0,3.63-0.4,6.76-1.21,9.38l-9.68,34.49c-2.22,8.28-6.86,15.08-13.92,20.42
				c-7.06,5.35-14.83,8.02-23.3,8.02h-50.83C316.6,204.97,308.99,201.79,302.84,195.44z M343.53,160.49c0,2.42,0.81,3.63,2.42,3.63
				h17.24c2.82,0,4.84-0.46,6.05-1.36c1.21-0.91,2.31-3.18,3.33-6.81l3.03-9.38c0.2-0.6,0.3-1.31,0.3-2.12
				c0-1.41-0.6-2.12-1.82-2.12H352c-1.21,0-2.22,0.3-3.02,0.91c-0.81,0.6-1.51,1.92-2.12,3.93l-3.03,10.29
				C343.63,158.28,343.53,159.28,343.53,160.49z"/>
			<path class="st0" d="M419.97,325.46c-8.27,7.16-17.24,10.74-26.93,10.74h-52.95c-4.24,0-8.28-0.8-12.1-2.42
				c-4.44,1.62-8.78,2.42-13.01,2.42H270.5l-15.13,55.98h-47.2l25.12-92.59l0.91-3.93l19.36-71.71h47.5l-16.34,60.21
				c0,3.84,1.71,5.75,5.15,5.75h18.76c3.42,0,5.85-2.82,7.26-8.47l15.73-57.49h46.9l-15.43,58.4c-0.2,0.6-0.3,1.41-0.3,2.42
				c0,1.62,0.46,2.87,1.36,3.78c0.91,0.91,2.17,1.36,3.78,1.36h18.76c3.42,0,5.85-2.82,7.26-8.47l15.73-57.49h46.9L436,301.11
				C433.58,310.18,428.24,318.31,419.97,325.46z"/>
			<path class="st0" d="M534.61,382.95c-7.86,6.15-16.54,9.23-26.02,9.23c-9.48,0-18.21-3.08-26.17-9.23s-13.16-13.97-15.58-23.45
				l-17.24-69.59h46.59l9.08,34.8c0.6,2.83,1.82,4.23,3.63,4.23c1.21,0,2.12-1.1,2.72-3.33l26.93-101.67h47.5l-36,135.86
				C547.62,369.08,542.48,376.8,534.61,382.95z"/>
			<path class="st0" d="M596.37,129.63c2.22-8.27,6.86-15.08,13.92-20.42c7.06-5.34,14.83-8.02,23.3-8.02h42.36v45.99h-31.77h-1.51
				c-1.42,0-2.47,0.15-3.18,0.45c-0.71,0.3-1.17,1.06-1.36,2.27l-1.21,5.75v0.6c0,2.02,1.01,3.02,3.02,3.02h20.27v45.69h-42.36
				c-9.08,0-16.69-3.18-22.85-9.53c-6.15-6.35-9.23-13.87-9.23-22.54c0-3.22,0.4-6.15,1.21-8.77L596.37,129.63z M685.17,195.44
				c-6.16-6.35-9.23-13.87-9.23-22.54c0-3.22,0.4-6.15,1.21-8.77l9.38-34.5c2.22-8.27,6.86-15.08,13.92-20.42
				c7.06-5.34,14.83-8.02,23.3-8.02h42.36v45.99h-31.77h-1.51c-1.41,0-2.47,0.15-3.18,0.45c-0.71,0.3-1.16,1.06-1.36,2.27
				l-1.21,5.75v0.6c0,2.02,1.01,3.02,3.03,3.02h20.27v45.69h-42.36C698.94,204.97,691.32,201.79,685.17,195.44z"/>
			<path class="st0" d="M607.26,320.77c-8.28-10.29-12.4-24.51-12.4-42.66c0-4.84,0.3-9.78,0.91-14.83h47.2l-0.3,9.38
				c0,6.25,0.8,10.59,2.42,13.01c1.61,2.42,5.04,3.83,10.29,4.23l17.85-65.96h47.2l-17.85,66.26h22.69v45.99h-35.4l-15.13,55.98
				h-47.2l15.13-55.98h-1.21C626.93,336.21,615.53,331.06,607.26,320.77z"/>
			<path class="st0" d="M810.05,195.44c-6.16-6.35-9.23-13.87-9.23-22.54c0-3.22,0.4-6.15,1.21-8.77l9.38-34.5
				c2.22-8.27,6.86-15.08,13.92-20.42c7.06-5.34,14.83-8.02,23.3-8.02h51.44c9.28,0,16.89,3.08,22.85,9.23
				c5.95,6.15,8.93,13.57,8.93,22.24c0,3.63-0.4,6.76-1.21,9.38l-9.68,34.49c-2.22,8.28-6.86,15.08-13.92,20.42
				c-7.06,5.35-14.83,8.02-23.3,8.02h-50.83C823.82,204.97,816.2,201.79,810.05,195.44z M850.75,160.49c0,2.42,0.81,3.63,2.42,3.63
				h17.24c2.82,0,4.84-0.46,6.05-1.36s2.31-3.18,3.33-6.81l3.03-9.38c0.2-0.6,0.3-1.31,0.3-2.12c0-1.41-0.6-2.12-1.82-2.12h-22.09
				c-1.21,0-2.22,0.3-3.02,0.91c-0.81,0.6-1.52,1.92-2.12,3.93l-3.03,10.29C850.84,158.28,850.75,159.28,850.75,160.49z"/>
			<path class="st0" d="M749.62,326.68c-6.16-6.35-9.23-13.87-9.23-22.54c0-3.23,0.4-6.15,1.21-8.78l11.8-42.97
				c2.22-8.27,6.86-15.08,13.92-20.42c7.06-5.34,14.82-8.02,23.3-8.02h53.26c5.44,0,10.39,1.11,14.82,3.33
				c5.04-2.22,10.19-3.33,15.43-3.33h53.25c9.28,0,16.89,3.13,22.85,9.38c5.95,6.26,8.93,13.72,8.93,22.39
				c0,3.43-0.4,6.45-1.21,9.07l-11.8,42.97c-2.22,8.28-6.86,15.08-13.92,20.43c-7.07,5.34-14.83,8.02-23.3,8.02H772.46
				C763.38,336.21,755.77,333.03,749.62,326.68z M783.36,290.82c0,1.41,0.65,2.57,1.97,3.48c1.31,0.91,2.88,1.36,4.69,1.36h26.93
				c2.42,0,4.64-0.65,6.66-1.97c2.01-1.31,3.43-3.28,4.24-5.9l3.93-14.52c0.6-1.82,0.91-3.33,0.91-4.54c0-1.41-0.45-2.42-1.36-3.02
				c-0.91-0.61-2.57-0.91-4.99-0.91h-26.63c-5.65,0-9.58,3.43-11.8,10.29l-4.54,14.52V290.82z M900.45,295.66
				c2.42,0,4.64-0.65,6.66-1.97c2.01-1.31,3.43-3.28,4.24-5.9l3.93-14.52c0.6-1.82,0.91-3.33,0.91-4.54c0-1.41-0.45-2.42-1.36-3.02
				c-0.91-0.61-2.57-0.91-4.99-0.91h-26.62c-5.25,0-8.88,2.63-10.89,7.87l-6.35,23H900.45z"/>
		</g>
	</g>
	<g>
		<g>
			<path class="st0" d="M47.96,466.81l-0.11-14.76l14.76-0.11l0.11,14.76L47.96,466.81z"/>
			<path class="st0" d="M75.38,466.61l-0.42-55.91l14.76-0.11l0.42,55.91L75.38,466.61z M107.97,466.36l-0.24-32.26
				c-0.02-3.27-0.85-5.79-2.45-7.55c-1.61-1.76-3.91-2.64-6.89-2.61c-2.73,0.02-4.83,0.8-6.31,2.34c-1.48,1.54-2.21,3.69-2.19,6.45
				l-1.22-12.38c1.59-3.38,3.61-6,6.05-7.85c2.45-1.85,5.38-2.79,8.79-2.81c6-0.04,10.64,2.05,13.94,6.28
				c3.3,4.23,4.98,10.22,5.04,17.98l0.24,32.31L107.97,466.36z M140.55,466.12l-0.24-32.26c-0.02-3.27-0.82-5.79-2.4-7.55
				c-1.58-1.76-3.8-2.64-6.67-2.62c-2.84,0.02-5.01,0.89-6.53,2.61c-1.51,1.72-2.26,4.14-2.23,7.26l-2.84-12.91
				c1.73-3.57,4.01-6.32,6.83-8.26c2.82-1.94,5.94-2.93,9.35-2.95c6.07-0.05,10.78,2.05,14.13,6.28c3.35,4.23,5.06,10.22,5.12,17.98
				l0.24,32.31L140.55,466.12z"/>
			<path class="st0" d="M188.38,444.92l11.26-35.15l14.71-0.11l-20.59,56.06l-10.45,0.08l-21.42-55.75l14.7-0.11L188.38,444.92z"/>
		</g>
	</g>
	<path class="st1" d="M540.97,466.38H440.51v-56.04h100.45"/>
</g>
</svg>
